<svg width="1887" height="1192" viewBox="0 0 1887 1192" fill="none" xmlns="http://www.w3.org/2000/svg">
            <g style="mix-blend-mode:soft-light" opacity="0.3">
            <path d="M309.208 408.978L332.18 377.863C361.541 338.059 378.65 290.554 381.411 241.17C384.172 191.786 372.464 142.669 347.723 99.8408C346.503 97.7306 344.814 95.9295 342.786 94.5769C340.758 93.2244 338.446 92.3567 336.029 92.041L172.419 70.6086L55.0434 186.56C53.3045 188.271 51.9831 190.36 51.1818 192.665C50.3805 194.969 50.1208 197.427 50.4227 199.848C56.5987 248.923 76.9594 295.131 109.009 332.805C141.059 370.48 183.404 397.984 230.855 411.947L267.962 422.852C275.43 425.048 283.393 424.895 290.771 422.413C298.149 419.931 304.585 415.241 309.208 408.978V408.978Z" stroke="white" stroke-width="30" stroke-linecap="round" stroke-linejoin="round"/>
            <path d="M1244.33 1019.82L1257.21 983.351C1273.66 936.705 1276.14 886.274 1264.35 838.238C1252.56 790.202 1227.02 746.65 1190.84 712.919C1189.06 711.258 1186.92 710.029 1184.58 709.328C1182.25 708.627 1179.78 708.472 1177.38 708.877L1014.65 736.184L936.271 881.37C935.108 883.515 934.454 885.899 934.361 888.337C934.268 890.775 934.738 893.201 935.734 895.429C955.98 940.558 988.953 978.8 1030.61 1005.47C1072.27 1032.13 1120.81 1046.06 1170.26 1045.55L1208.94 1045.14C1216.72 1045.06 1224.29 1042.58 1230.62 1038.06C1236.95 1033.53 1241.74 1027.16 1244.33 1019.82V1019.82Z" stroke="white" stroke-width="30" stroke-linecap="round" stroke-linejoin="round"/>
            <path d="M56.5141 873.852C55.6468 870.65 199.466 797.43 388.067 746.357C576.667 695.283 738.63 685.695 739.497 688.898" stroke="white" stroke-width="30" stroke-linecap="round"/>
            <path d="M1465.16 351.731C1466.69 354.674 1341.89 456.989 1168.6 547.262C995.306 637.534 839.153 681.579 837.62 678.636" stroke="white" stroke-width="30" stroke-linecap="round"/>
            <path d="M1747.65 731.3C1708.4 713.965 1662.36 731.799 1645.03 771.053L1626.16 813.768L1611.93 807.48C1604.37 804.145 1595.81 803.947 1588.11 806.929C1580.41 809.911 1574.21 815.829 1570.87 823.382L1520.57 937.287C1517.24 944.839 1517.04 953.407 1520.02 961.106C1523.01 968.804 1528.92 975.003 1536.48 978.338L1707.33 1053.79C1714.89 1057.12 1723.45 1057.32 1731.15 1054.34C1738.85 1051.36 1745.05 1045.44 1748.39 1037.89L1798.69 923.981C1802.02 916.428 1802.22 907.86 1799.24 900.162C1796.25 892.463 1790.34 886.265 1782.78 882.93L1768.55 876.642L1787.41 833.928C1804.74 794.673 1786.91 748.634 1747.65 731.3ZM1673.5 783.628C1683.9 760.078 1711.53 749.376 1735.08 759.776C1758.63 770.175 1769.33 797.803 1758.93 821.353L1740.07 864.067L1654.64 826.343L1673.5 783.628ZM1663.03 961.454L1648.72 993.874L1620.24 981.299L1634.56 948.879C1630.84 943.83 1628.74 937.773 1628.53 931.505C1628.32 925.238 1630.02 919.055 1633.4 913.772C1636.78 908.489 1641.68 904.353 1647.45 901.911C1653.23 899.468 1659.61 898.833 1665.75 900.09C1670.32 901.008 1674.63 902.94 1678.35 905.744C1682.07 908.547 1685.12 912.151 1687.27 916.289C1689.41 920.428 1690.6 924.995 1690.75 929.654C1690.89 934.313 1689.99 938.945 1688.11 943.209C1685.9 948.185 1682.42 952.491 1678.02 955.694C1673.62 958.897 1668.45 960.884 1663.03 961.454Z" fill="white"/>
            <g clip-path="url(#clip0)">
            <path d="M772.224 270.436C733.761 245.271 681.996 256.089 656.83 294.552L629.447 336.405L615.496 327.277C608.096 322.435 599.075 320.731 590.419 322.54C581.763 324.349 574.18 329.523 569.338 336.923L496.315 448.53C491.474 455.93 489.77 464.951 491.579 473.607C493.388 482.263 498.561 489.846 505.962 494.688L673.373 604.222C680.773 609.064 689.793 610.767 698.449 608.958C707.105 607.149 714.689 601.976 719.53 594.576L792.553 482.968C797.395 475.568 799.098 466.548 797.289 457.892C795.48 449.236 790.307 441.653 782.907 436.811L768.956 427.683L796.339 385.83C821.505 347.368 810.687 295.602 772.224 270.436ZM684.732 312.808C699.829 289.733 730.893 283.241 753.968 298.338C777.043 313.436 783.535 344.5 768.437 367.575L741.054 409.427L657.348 354.66L684.732 312.808ZM642.658 498.915L621.874 530.681L593.972 512.425L614.756 480.659C611.706 474.675 610.541 467.907 611.415 461.247C612.29 454.587 615.162 448.349 619.653 443.355C624.144 438.36 630.043 434.844 636.573 433.27C643.102 431.696 649.956 432.138 656.229 434.537C660.899 436.304 665.112 439.097 668.559 442.709C672.005 446.322 674.597 450.662 676.143 455.409C677.689 460.157 678.149 465.191 677.49 470.14C676.831 475.089 675.07 479.827 672.336 484.005C669.136 488.879 664.707 492.824 659.497 495.441C654.287 498.059 648.479 499.257 642.658 498.915Z" fill="white"/>
            </g>
            <path d="M521.907 104.18L543.54 124.213L546.001 126.869L546.801 123.34L555.5 95.1959L582.408 88L565.111 138.156L606 173.275L579.093 180.471L556.688 160.819L554.39 158.119L553.753 161.604L544.195 189.804L517.288 197L535.237 146.669L495 111.376L521.907 104.18Z" fill="white"/>
            <path d="M1398.06 754.842L1409.62 781.965L1410.78 785.395L1412.95 782.501L1432.39 760.366L1459.89 764.791L1423.61 803.504L1446.58 852.264L1419.09 847.839L1406.66 820.749L1405.67 817.346L1403.66 820.266L1383.42 842.1L1355.92 837.676L1392.87 799.07L1370.56 750.418L1398.06 754.842Z" fill="white"/>
            <rect x="495.086" y="810.591" width="172.152" height="172.152" rx="20" transform="rotate(-15 495.086 810.591)" fill="white"/>
            <rect x="810" y="84.5562" width="172.152" height="172.152" rx="20" transform="rotate(-15 810 84.5562)" fill="white"/>
            <path d="M808.907 960.18L830.54 980.213L833.001 982.869L833.801 979.34L842.5 951.196L869.408 944L852.111 994.156L893 1029.28L866.093 1036.47L843.688 1016.82L841.39 1014.12L840.753 1017.6L831.195 1045.8L804.288 1053L822.237 1002.67L782 967.376L808.907 960.18Z" fill="white"/>
            <path d="M1802.91 547.18L1824.54 567.213L1827 569.869L1827.8 566.34L1836.5 538.196L1863.41 531L1846.11 581.156L1887 616.275L1860.09 623.471L1837.69 603.819L1835.39 601.119L1834.75 604.604L1825.2 632.804L1798.29 640L1816.24 589.669L1776 554.376L1802.91 547.18Z" fill="white"/>
            <path d="M929.907 435.18L951.54 455.213L954.001 457.869L954.801 454.34L963.5 426.196L990.408 419L973.111 469.156L1014 504.275L987.093 511.471L964.688 491.819L962.39 489.119L961.753 492.604L952.195 520.804L925.288 528L943.237 477.669L903 442.376L929.907 435.18Z" fill="white"/>
            <path d="M102.907 594.18L124.54 614.213L127.001 616.869L127.801 613.34L136.5 585.196L163.408 578L146.111 628.156L187 663.275L160.093 670.471L137.688 650.819L135.39 648.119L134.753 651.604L125.195 679.804L98.2878 687L116.237 636.669L76 601.376L102.907 594.18Z" fill="white"/>
            <path d="M1242.14 288.321C1214.87 195.309 1268.17 97.8042 1361.18 70.5375C1454.19 43.2708 1551.69 96.5676 1578.96 189.579" stroke="white" stroke-width="30"/>
            <path d="M356.829 867C374.627 927.713 335.368 992.669 269.141 1012.08C202.914 1031.5 134.798 998.02 117 937.307" stroke="white" stroke-width="30"/>
            <path d="M1672.83 474C1690.63 534.713 1651.37 599.669 1585.14 619.084C1518.91 638.499 1450.8 605.02 1433 544.307" stroke="white" stroke-width="30"/>
            <path d="M1445.98 1030.59L1448.98 1055.94L1430.28 1058.15L1432.72 1078.75L1404.38 1082.1L1401.94 1061.51L1383.44 1063.7L1380.44 1038.35L1398.94 1036.16L1396.5 1015.57L1424.84 1012.21L1427.28 1032.81L1445.98 1030.59Z" fill="white"/>
            <path d="M1310.98 626.594L1313.98 651.941L1295.28 654.155L1297.72 674.749L1269.38 678.104L1266.94 657.51L1248.44 659.7L1245.44 634.353L1263.94 632.163L1261.5 611.569L1289.84 608.213L1292.28 628.808L1310.98 626.594Z" fill="white"/>
            <path d="M1752.98 71.5943L1755.98 96.9411L1737.28 99.1546L1739.72 119.749L1711.38 123.104L1708.94 102.51L1690.44 104.7L1687.44 79.3532L1705.94 77.163L1703.5 56.5687L1731.84 53.2135L1734.28 73.8078L1752.98 71.5943Z" fill="white"/>
            <path d="M1140.98 271.594L1143.98 296.941L1125.28 299.155L1127.72 319.749L1099.38 323.104L1096.94 302.51L1078.44 304.7L1075.44 279.353L1093.94 277.163L1091.5 256.569L1119.84 253.214L1122.28 273.808L1140.98 271.594Z" fill="white"/>
            <path d="M405.98 579.594L408.981 604.941L390.283 607.155L392.721 627.749L364.378 631.104L361.94 610.51L343.439 612.7L340.438 587.353L358.939 585.163L356.501 564.569L384.844 561.213L387.282 581.808L405.98 579.594Z" fill="white"/>
            <path d="M1846.18 138C1847.01 139.338 1791.59 192.271 1712.79 241.246C1633.99 290.22 1561.64 316.69 1560.81 315.352" stroke="white" stroke-width="30" stroke-linecap="round"/>
            </g>
            <defs>
            <clipPath id="clip0">
            <rect width="400.121" height="400.121" fill="white" transform="translate(623.068 133) rotate(33.196)"/>
            </clipPath>
            </defs>
        </svg>